<svg width="419" height="519" viewBox="0 0 419 519" fill="none" xmlns="http://www.w3.org/2000/svg">
    <path
       id="path2"
       style="stroke-width:1.86817;stroke:none;stroke-opacity:1;fill:#fb1a04;fill-opacity:1"
       d="m 313.5625,94.033203 c -15.15846,-0.245682 -30.43828,0.99701 -45.66797,3.789063 C 145.16642,120.35462 55.212891,237.13035 55.212891,374.08789 v 11.36523 C 55.212891,466.76554 85.849953,544.55082 140,600 l 321.87109,330.53906 c 13.35942,13.7153 30.99492,21.35742 49.3418,21.35742 18.34689,0 35.9805,-7.64212 49.33984,-21.35742 L 882.42578,600 c 54.14997,-55.44918 84.78711,-133.23446 84.78711,-214.54688 v -11.36523 c 0,-136.95754 -89.95354,-253.73327 -212.68164,-276.265624 C 673.30625,82.93132 590.65667,112.12566 532.58789,176 l -21.375,23.51172 L 489.83789,176 C 442.65707,124.1021 379.24914,95.097827 313.5625,94.033203 Z M 302.37305,243.17969 h 422.42578 c 38.8323,0 70.40234,31.34262 70.40234,69.89258 v 279.56835 c 0,38.5499 -31.57004,69.89258 -70.40234,69.89258 H 302.37305 c -38.83234,0 -70.4043,-31.34268 -70.4043,-69.89258 V 313.07227 c 0,-38.54996 31.57196,-69.89258 70.4043,-69.89258 z m 0,34.94531 c -19.47119,0 -35.20313,15.6177 -35.20313,34.94727 v 43.57226 l 215.17383,156.60352 c 18.59108,13.54159 43.8913,13.54159 62.48242,0 L 760,356.64453 V 313.07227 C 760,293.7427 744.27001,278.125 724.79883,278.125 Z M 267.16992,400 v 192.64062 c 0,19.32949 15.73194,34.94532 35.20313,34.94532 H 724.79883 C 744.27001,627.58594 760,611.97011 760,592.64062 V 400 L 565.61914,541.42188 c -31.02187,22.49646 -73.15456,22.49646 -104.06641,0 z"
       transform="scale(0.26458333)" />

</svg>
