<?xml version="1.0" encoding="UTF-8" standalone="no"?>
<!DOCTYPE svg PUBLIC "-//W3C//DTD SVG 1.1//EN" "http://www.w3.org/Graphics/SVG/1.1/DTD/svg11.dtd">
<svg width="456" height="456" viewBox="0 0 456 456" version="1.1" xmlns="http://www.w3.org/2000/svg" xmlns:xlink="http://www.w3.org/1999/xlink" xml:space="preserve" xmlns:serif="http://www.serif.com/" style="fill-rule:evenodd;clip-rule:evenodd;stroke-linejoin:round;stroke-miterlimit:2;">
    <path
   id="path2"
   style="fill:#fb1a04;fill-opacity:1;stroke:none;stroke-width:0.494287;stroke-opacity:1"
   d="m 173.83097,109.09833 c -4.01068,-0.065 -8.05346,0.26379 -12.08299,1.00252 -32.47181,5.96169 -56.27201,36.8586 -56.27201,73.09528 v 3.00705 c 0,21.51391 8.10605,42.0946 22.43325,56.76553 l 85.16173,87.45513 c 3.53468,3.62883 8.20074,5.65081 13.05502,5.65081 4.85428,0 9.51984,-2.02198 13.0545,-5.65081 l 85.16224,-87.45513 c 14.32718,-14.67093 22.43325,-35.25162 22.43325,-56.76553 v -3.00705 c 0,-36.23668 -23.8002,-67.13359 -56.27201,-73.09528 -21.49078,-3.93989 -43.35848,3.78444 -58.72251,20.68453 l -5.65547,6.22081 -5.65547,-6.22081 C 207.98724,117.05406 191.21056,109.38001 173.83097,109.09833 Z M 170.87043,148.56 h 111.76682 c 10.27437,0 18.62728,8.29274 18.62728,18.49242 v 73.96912 c 0,10.19966 -8.35291,18.49241 -18.62728,18.49241 H 170.87043 c -10.27439,0 -18.62781,-8.29275 -18.62781,-18.49241 v -73.96912 c 0,-10.19968 8.35342,-18.49242 18.62781,-18.49242 z m 0,9.24595 c -5.15176,0 -9.31417,4.13218 -9.31417,9.24647 v 11.52849 l 56.93141,41.43468 c 4.91889,3.58288 11.61291,3.58288 16.53181,0 l 56.93141,-41.43468 v -11.52849 c 0,-5.11429 -4.16189,-9.24647 -9.31364,-9.24647 z m -9.31417,32.24609 v 50.9695 c 0,5.11426 4.16241,9.24595 9.31417,9.24595 h 111.76682 c 5.15175,0 9.31364,-4.13169 9.31364,-9.24595 v -50.9695 l -51.42994,37.41788 c -8.20787,5.95218 -19.35547,5.95218 -27.53423,0 z" />
</svg>